<svg xmlns="http://www.w3.org/2000/svg" width="600" height="300" viewBox="0 0 600 300">
  <defs>
    <linearGradient id="grad1" x1="0%" y1="0%" x2="100%" y2="100%">
      <stop offset="0%" stop-color="#2b5876" />
      <stop offset="100%" stop-color="#4e4376" />
    </linearGradient>
    
    <filter id="glow" x="-20%" y="-20%" width="140%" height="140%">
      <feGaussianBlur stdDeviation="3" result="blur" />
      <feComposite in="SourceGraphic" in2="blur" operator="over" />
    </filter>
    
    <!-- Hand template -->
    <g id="hand-base">
      <path d="M50,180 Q40,140 50,100 Q55,80 70,70 Q85,60 95,70 Q100,75 100,90 L100,140" 
            stroke="#fff" stroke-width="3" fill="none" />
      <path d="M100,140 Q100,110 105,90 Q110,75 120,70 Q130,65 140,70 Q145,75 145,90 L145,150" 
            stroke="#fff" stroke-width="3" fill="none" />
      <path d="M145,150 Q145,120 150,100 Q155,85 165,80 Q175,75 185,80 Q190,85 190,100 L190,160" 
            stroke="#fff" stroke-width="3" fill="none" />
      <path d="M190,160 Q190,130 195,110 Q200,95 210,90 Q220,85 230,90 Q235,95 235,110 L235,170" 
            stroke="#fff" stroke-width="3" fill="none" />
      <path d="M100,140 L100,200 Q130,220 190,210 L235,170" 
            stroke="#fff" stroke-width="3" fill="none" />
      <path d="M50,180 Q90,200 100,200" 
            stroke="#fff" stroke-width="3" fill="none" />
      <!-- Palm -->
      <ellipse cx="140" cy="170" rx="60" ry="40" 
               fill="none" stroke="#fff" stroke-width="2" opacity="0.5" />
    </g>
    
    <!-- Hand gesture 1: Index finger pointing -->
    <g id="gesture-pointing">
      <use href="#hand-base" />
      <!-- Index finger extension highlight -->
      <path d="M100,140 Q100,110 105,90 Q110,75 120,70 Q130,65 140,70 Q145,75 145,90 L145,150" 
            stroke="#29dab5" stroke-width="5" fill="none" filter="url(#glow)" />
      <circle cx="145" cy="90" r="8" fill="#29dab5" filter="url(#glow)" />
    </g>
    
    <!-- Hand gesture 2: Click gesture -->
    <g id="gesture-click">
      <use href="#hand-base" />
      <!-- Thumb extension highlight -->
      <path d="M50,180 Q40,140 50,100 Q55,80 70,70 Q85,60 95,70 Q100,75 100,90 L100,140" 
            stroke="#29dab5" stroke-width="5" fill="none" filter="url(#glow)" />
      <!-- Index finger extension highlight -->
      <path d="M100,140 Q100,110 105,90 Q110,75 120,70 Q130,65 140,70 Q145,75 145,90 L145,150" 
            stroke="#29dab5" stroke-width="5" fill="none" filter="url(#glow)" />
      <circle cx="100" cy="90" r="8" fill="#29dab5" filter="url(#glow)" />
      <circle cx="145" cy="90" r="8" fill="#29dab5" filter="url(#glow)" />
    </g>
    
    <!-- Hand gesture 3: Volume control -->
    <g id="gesture-volume">
      <use href="#hand-base" />
      <!-- Thumb extension highlight -->
      <path d="M50,180 Q40,140 50,100 Q55,80 70,70 Q85,60 95,70 Q100,75 100,90 L100,140" 
            stroke="#29dab5" stroke-width="5" fill="none" filter="url(#glow)" />
      <!-- Index finger extension highlight -->
      <path d="M100,140 Q100,110 105,90 Q110,75 120,70 Q130,65 140,70 Q145,75 145,90 L145,150" 
            stroke="#29dab5" stroke-width="5" fill="none" filter="url(#glow)" />
      <!-- Middle finger extension highlight -->
      <path d="M145,150 Q145,120 150,100 Q155,85 165,80 Q175,75 185,80 Q190,85 190,100 L190,160" 
            stroke="#29dab5" stroke-width="5" fill="none" filter="url(#glow)" />
      <circle cx="100" cy="90" r="8" fill="#29dab5" filter="url(#glow)" />
      <circle cx="145" cy="90" r="8" fill="#29dab5" filter="url(#glow)" />
      <circle cx="190" cy="100" r="8" fill="#29dab5" filter="url(#glow)" />
    </g>
  </defs>
  
  <!-- Background -->
  <rect width="600" height="300" fill="url(#grad1)" />
  
  <!-- Title -->
  <text x="300" y="40" font-size="24" font-weight="bold" fill="#fff" text-anchor="middle">Hand Gesture Controls</text>
  
  <!-- Gesture 1: Move cursor -->
  <g transform="translate(50, 30)">
    <use href="#gesture-pointing" transform="scale(0.7)" />
    <text x="140" y="240" font-size="16" font-weight="bold" fill="#fff" text-anchor="middle">Cursor Movement</text>
    <text x="140" y="265" font-size="12" fill="rgba(255,255,255,0.8)" text-anchor="middle">Index finger up</text>
  </g>
  
  <!-- Gesture 2: Click -->
  <g transform="translate(250, 30)">
    <use href="#gesture-click" transform="scale(0.7)" />
    <text x="140" y="240" font-size="16" font-weight="bold" fill="#fff" text-anchor="middle">Click Action</text>
    <text x="140" y="265" font-size="12" fill="rgba(255,255,255,0.8)" text-anchor="middle">Thumb + Index</text>
  </g>
  
  <!-- Gesture 3: Volume -->
  <g transform="translate(450, 30)">
    <use href="#gesture-volume" transform="scale(0.7)" />
    <text x="140" y="240" font-size="16" font-weight="bold" fill="#fff" text-anchor="middle">Volume Control</text>
    <text x="140" y="265" font-size="12" fill="rgba(255,255,255,0.8)" text-anchor="middle">Thumb + Index + Middle</text>
  </g>
  
  <!-- Connection dots -->
  <g fill="#29dab5" opacity="0.6">
    <circle cx="50" cy="280" r="3" />
    <circle cx="60" cy="280" r="3" />
    <circle cx="70" cy="280" r="3" />
    <circle cx="530" cy="280" r="3" />
    <circle cx="540" cy="280" r="3" />
    <circle cx="550" cy="280" r="3" />
  </g>
  
  <!-- Hand tracking points visualization -->
  <g transform="translate(280, 280)">
    <text x="0" y="0" font-size="12" fill="#29dab5" text-anchor="middle">Powered by MediaPipe Hand Tracking</text>
  </g>
</svg> 